PathFileType	4	(X/Y/Z)	Walk7.trc
DataRate	CameraRate	NumFrames	NumMarkers	Units	OrigDataRate	OrigDataStartFrame	OrigNumFrames
200.000000	200.000000	5	60	mm	200.000000	789	829
Frame#	Times		RCAR		LTH3		RTH2		LBHD		LUA1		LWRU		RFA1		LFA1		LCAR		RTB3		LElbow		RToe		RTB2		RBHD		LElbowM		LTH2		C7		RPSI		RWRU		LWRR		RMT1		RMT5		RTB1		STRN		RLFC		RElbow		CLAV		T10		RBack		LPSI		LASI		LTH4		RLMAL		LLFC		LACR1		RUA1		LTB3		LTB4		RMMAL		LCAL		RTH3		LFHD		RElbowM		RCAL		LTB1		RACR1		RTH1		LTB2		LMMAL		RTH4		LMFC		RWRR		LMT5		RFHD		LLMAL		RASI		RTB4		LToe		LMT1		LTH1
			X1	Y1	Z1	X2	Y2	Z2	X3	Y3	Z3	X4	Y4	Z4	X5	Y5	Z5	X6	Y6	Z6	X7	Y7	Z7	X8	Y8	Z8	X9	Y9	Z9	X10	Y10	Z10	X11	Y11	Z11	X12	Y12	Z12	X13	Y13	Z13	X14	Y14	Z14	X15	Y15	Z15	X16	Y16	Z16	X17	Y17	Z17	X18	Y18	Z18	X19	Y19	Z19	X20	Y20	Z20	X21	Y21	Z21	X22	Y22	Z22	X23	Y23	Z23	X24	Y24	Z24	X25	Y25	Z25	X26	Y26	Z26	X27	Y27	Z27	X28	Y28	Z28	X29	Y29	Z29	X30	Y30	Z30	X31	Y31	Z31	X32	Y32	Z32	X33	Y33	Z33	X34	Y34	Z34	X35	Y35	Z35	X36	Y36	Z36	X37	Y37	Z37	X38	Y38	Z38	X39	Y39	Z39	X40	Y40	Z40	X41	Y41	Z41	X42	Y42	Z42	X43	Y43	Z43	X44	Y44	Z44	X45	Y45	Z45	X46	Y46	Z46	X47	Y47	Z47	X48	Y48	Z48	X49	Y49	Z49	X50	Y50	Z50	X51	Y51	Z51	X52	Y52	Z52	X53	Y53	Z53	X54	Y54	Z54	X55	Y55	Z55	X56	Y56	Z56	X57	Y57	Z57	X58	Y58	Z58	X59	Y59	Z59	X60	Y60	Z60

789	3.945	869.94	854.67	316.84	782.89	620.19	-154.34	915.83	738.21	180.54	733.31	1652.2	-92.126	768.03	1305.1	-281.74	851.12	877.27	-291.5	759.7	1006.5	305.66	802.61	1002.7	-310.22	929.19	850.04	-287.52	780.06	231.61	116.89	760.09	1148.6	-308.18	835.73	47.739	146.76	797.46	316.84	187.22	747.68	1663.3	49.524	717.96	1135.5	-244.4	851.59	715.66	-149.11	715.19	1524.8	-18.011	625.42	1031.6	44.626	806.21	877.49	308.49	910.1	900.83	-236.5	795.73	51.178	119.17	742.28	55.216	186.64	879.85	387.86	136.84	897.74	1268.1	-17.431	870.31	519.79	200.72	724.08	1153.7	280.64	848.5	1440.6	-17.962	614.69	1299.6	-14.27	640.54	1438.9	114.73	622.21	1029.4	-33.501	830.34	1050.5	-143.05	782.9	711.34	-171.57	677.52	140.53	148.8	772.71	515.94	-140.89	788.45	1478.1	-184.31	759.33	1307.2	243.57	768.76	194.18	-56.247	789.4	288.36	-58.445	729.55	147.95	77.245	647.52	29.131	-51.342	866.89	630.76	204.6	913.31	1698.6	-68.536	701.48	1135.7	204.14	621.29	126.27	89.856	807.73	376.28	-62.626	793.98	1478	143.98	826.34	815.08	203.07	766.46	291.15	-130.79	736.34	91.352	-13.347	845.02	723.94	213.22	784.68	523.1	-11.948	865.33	892.44	261.56	805.91	21.482	-129.53	920.72	1703.2	7.5267	706.94	70.263	-94.275	837.77	1058	140.57	831.75	308.44	125.44	907.56	31.366	-61.052	854.21	39.487	-45.331	788.95	801.84	-184.09
790	3.95	870.77	853.96	317.3	784.83	620.21	-154.47	921.69	739.11	179.78	738.01	1652.2	-92.337	773.95	1305.4	-282.17	860.89	878.42	-292.06	761.46	1006.3	305.38	811.19	1003.3	-310.9	939.3	852.03	-288.13	793.38	229.97	116.22	767.25	1148.9	-308.93	853.37	47.63	146.61	808.71	315.65	186.64	752.39	1663.2	49.326	725.15	1135.4	-245.21	854.33	715.12	-149.27	719.95	1524.8	-18.271	630	1031.7	44.448	807.2	877.11	308.45	919.63	902.59	-237.08	813.33	50.214	118.89	759.59	53.062	186.23	889.64	388.36	136.26	902.4	1268	-17.743	877.81	520.25	200.14	726.82	1153.7	280.11	853.2	1440.5	-18.152	619.37	1299.7	-14.583	645.09	1438.9	114.27	626.76	1029.5	-33.674	834.85	1050.5	-143.5	785.57	711.35	-171.66	692.82	136.6	148.04	773.89	515.94	-141	793.33	1478.2	-184.45	762.81	1307.1	243.33	769.07	194.1	-56.307	789.91	288.26	-58.506	744.97	145.17	76.506	647.55	29.209	-51.322	873.64	631.39	204.22	918.01	1698.7	-68.737	704.61	1135.8	203.59	637.08	120.79	88.964	808.45	376.11	-62.721	798.54	1477.9	143.86	832.04	815.39	202.81	766.98	291.1	-130.85	736.37	91.389	-13.355	850.97	724.63	213.17	786.04	522.97	-12.049	866.73	891.72	261.98	805.92	21.464	-129.52	925.42	1703.2	7.3304	706.94	70.31	-94.279	842.58	1058	140.03	843.33	307.93	124.8	907.57	31.349	-61.025	854.18	39.455	-45.321	792.44	801.77	-184.17
791	3.955	871.63	853.25	317.77	786.78	620.22	-154.6	927.47	739.94	179.01	742.72	1652.1	-92.54	779.86	1305.7	-282.57	870.63	879.56	-292.59	763.24	1006.2	305.11	819.75	1004	-311.55	949.35	854.02	-288.71	806.76	228.34	115.6	774.39	1149.1	-309.65	871.08	47.635	146.53	819.95	314.46	186.06	757.11	1663.1	49.135	732.32	1135.2	-246.01	857.07	714.56	-149.43	724.72	1524.8	-18.513	634.57	1031.7	44.272	808.21	876.73	308.4	929.14	904.35	-237.64	831.02	49.35	118.68	777.03	51	185.89	899.36	388.85	135.68	907.06	1267.9	-18.037	885.17	520.64	199.51	729.58	1153.7	279.59	857.91	1440.5	-18.326	624.06	1299.7	-14.859	649.65	1439	113.83	631.3	1029.6	-33.841	839.37	1050.5	-143.92	788.25	711.34	-171.75	708.27	132.7	147.32	775.1	515.93	-141.1	798.2	1478.2	-184.58	766.32	1307	243.11	769.39	194.03	-56.362	790.43	288.17	-58.559	760.51	142.42	75.815	647.58	29.296	-51.305	880.28	631.96	203.83	922.73	1698.7	-68.924	707.75	1135.9	203.06	653.09	115.3	88.121	809.2	375.95	-62.807	803.12	1477.8	143.76	837.62	815.66	202.59	767.53	291.05	-130.91	736.41	91.427	-13.362	856.93	725.27	213.04	787.42	522.85	-12.146	868.16	890.99	262.41	805.92	21.447	-129.52	930.13	1703.2	7.1478	706.95	70.364	-94.285	847.32	1057.8	139.55	854.89	307.42	124.19	907.59	31.329	-60.996	854.15	39.422	-45.309	795.84	801.72	-184.35
792	3.96	872.53	852.54	318.22	788.74	620.22	-154.72	933.16	740.67	178.23	747.44	1652	-92.735	785.75	1305.9	-282.95	880.32	880.68	-293.08	765.06	1006.1	304.85	828.29	1004.6	-312.18	959.35	855.99	-289.28	820.2	226.72	115.02	781.52	1149.4	-310.35	888.86	47.766	146.51	831.18	313.27	185.48	761.84	1663	48.951	739.49	1135	-246.79	859.81	714	-149.58	729.51	1524.7	-18.738	639.14	1031.7	44.101	809.27	876.33	308.33	938.61	906.09	-238.18	848.8	48.598	118.53	794.56	49.046	185.62	909	389.32	135.09	911.73	1267.8	-18.311	892.41	520.96	198.84	732.36	1153.7	279.09	862.63	1440.4	-18.485	628.76	1299.7	-15.1	654.24	1438.9	113.42	635.84	1029.6	-34.002	843.9	1050.4	-144.31	790.93	711.31	-171.83	723.86	128.83	146.66	776.32	515.92	-141.21	803.07	1478.2	-184.7	769.86	1306.8	242.89	769.72	193.97	-56.413	790.97	288.07	-58.606	776.17	139.72	75.173	647.61	29.392	-51.293	886.79	632.46	203.41	927.45	1698.6	-69.098	710.91	1135.9	202.54	669.31	109.84	87.338	809.96	375.78	-62.885	807.72	1477.7	143.67	843.06	815.9	202.4	768.09	291.01	-130.97	736.44	91.466	-13.368	862.91	725.84	212.8	788.83	522.72	-12.241	869.62	890.26	262.84	805.93	21.433	-129.52	934.84	1703.2	6.9789	706.97	70.424	-94.293	852	1057.6	139.14	866.43	306.9	123.62	907.61	31.309	-60.965	854.12	39.39	-45.297	799.15	801.7	-184.63
793	3.965	873.47	851.83	318.68	790.72	620.22	-154.85	938.76	741.32	177.44	752.18	1651.9	-92.921	791.62	1306.1	-283.31	889.98	881.79	-293.54	766.92	1006	304.59	836.8	1005.2	-312.8	969.29	857.95	-289.82	833.67	225.14	114.48	788.63	1149.6	-311.03	906.68	48.033	146.54	842.39	312.09	184.91	766.57	1662.9	48.776	746.63	1134.7	-247.55	862.56	713.42	-149.72	734.3	1524.7	-18.946	643.72	1031.6	43.937	810.36	875.93	308.26	948.04	907.83	-238.71	866.64	47.969	118.43	812.2	47.217	185.42	918.57	389.77	134.51	916.4	1267.6	-18.563	899.52	521.2	198.13	735.18	1153.7	278.61	867.36	1440.2	-18.629	633.46	1299.7	-15.307	658.84	1438.9	113.04	640.38	1029.6	-34.157	848.43	1050.3	-144.65	793.63	711.27	-171.9	739.6	125.01	146.06	777.58	515.9	-141.32	807.94	1478.2	-184.8	773.43	1306.7	242.69	770.06	193.91	-56.459	791.52	287.97	-58.649	791.94	137.09	74.582	647.63	29.495	-51.285	893.17	632.9	202.97	932.19	1698.6	-69.259	714.09	1136	202.03	685.72	104.42	86.622	810.74	375.61	-62.957	812.33	1477.5	143.59	848.37	816.11	202.27	768.68	290.97	-131.03	736.48	91.505	-13.371	868.9	726.33	212.46	790.26	522.6	-12.332	871.12	889.53	263.27	805.93	21.422	-129.53	939.57	1703.1	6.8234	706.99	70.49	-94.302	856.64	1057.4	138.79	877.95	306.4	123.06	907.62	31.286	-60.933	854.09	39.358	-45.285	802.38	801.7	-184.99
